<?xml version="1.0" encoding="utf-8"?>
<!-- Generator: Adobe Illustrator 16.0.0, SVG Export Plug-In . SVG Version: 6.00 Build 0)  -->
<!DOCTYPE svg PUBLIC "-//W3C//DTD SVG 1.1//EN" "http://www.w3.org/Graphics/SVG/1.1/DTD/svg11.dtd">
<svg version="1.1" id="Layer_1" xmlns="http://www.w3.org/2000/svg" xmlns:xlink="http://www.w3.org/1999/xlink" x="0px" y="0px"
	 width="450.539px" height="440.096px" viewBox="0 0 450.539 440.096" enable-background="new 0 0 450.539 440.096"
	 xml:space="preserve">
<g>
    <rect x="364.466" y="4.638" opacity="0.2" fill="#62292A" width="86.071" height="60.901"/>
    <rect x="359.196" fill="#62292A" width="85.028" height="61.71"/>

    <rect x="191.758" y="134.584" transform="matrix(-3.759464e-005 1 -1 -3.759464e-005 472.5919 -118.5966)" opacity="0.2" fill="#62292A" width="207.669" height="84.81"/>
    <rect x="185.683" y="129.178" transform="matrix(-3.735622e-005 1 -1 -3.735622e-005 462.5172 -118.0023)" fill="#62292A" width="209.149" height="86.141"/>

    <polygon opacity="0.2" fill="#62292A" points="6.664,314.162 6.671,150.495 173.334,150.501 173.333,314.167 	"/>
    <polygon fill="#62292A" points="-0.002,309.496 0.004,145.829 169,145.834 168.999,309.5 	"/>
    
    <rect x="103.668" y="28.497" opacity="0.2" fill="#62292A" width="69.665" height="119.668"/>
    <rect x="97.669" y="24.163" fill="#62292A" width="71.332" height="119.668"/>

    <rect x="296.149" y="343.567" transform="matrix(0.8709 -0.4915 0.4915 0.8709 -140.7864 223.524)" opacity="0.2" fill="#62292A" width="117.716" height="72.265"/>
    <rect x="291.815" y="339.901" transform="matrix(0.8709 -0.4915 0.4915 0.8709 -139.5441 220.9204)" fill="#62292A" width="117.716" height="72.265"/>
</g>
</svg>
