<?xml version="1.0" encoding="utf-8"?>
<!-- Generator: Adobe Illustrator 16.0.0, SVG Export Plug-In . SVG Version: 6.00 Build 0)  -->
<!DOCTYPE svg PUBLIC "-//W3C//DTD SVG 1.1//EN" "http://www.w3.org/Graphics/SVG/1.1/DTD/svg11.dtd">
<svg version="1.1" id="Layer_1" xmlns="http://www.w3.org/2000/svg" xmlns:xlink="http://www.w3.org/1999/xlink" x="0px" y="0px"
	 width="612px" height="792px" viewBox="0 0 612 792" style="enable-background:new 0 0 612 792;" xml:space="preserve">
<style type="text/css">
<![CDATA[
	.st0{opacity:0.2;fill:#62292A;}
	.st1{fill:#62292A;}
]]>
</style>
<rect x="450.134" y="175.814" class="st0" width="86.071" height="60.901"/>
<rect x="444.864" y="171.176" class="st1" fill="#f00" width="85.028" height="61.71"/>
<rect x="277.426" y="305.76" transform="matrix(-3.759464e-005 1 -1 -3.759464e-005 729.4396 -33.0821)" class="st0" width="207.669" height="84.81"/>
<rect x="271.351" y="300.355" transform="matrix(-3.735622e-005 1 -1 -3.735622e-005 719.3649 -32.4879)" class="st1" width="209.149" height="86.141"/>
<rect x="381.817" y="514.744" transform="matrix(0.8709 -0.4915 0.4915 0.8709 -213.8601 287.7359)" class="st0" width="117.716" height="72.265"/>
<rect x="377.483" y="511.078" transform="matrix(0.8709 -0.4915 0.4915 0.8709 -212.6178 285.1323)" class="st1" width="117.716" height="72.265"/>
<polygon class="st0" points="92.333,485.338 92.339,321.671 259.003,321.677 259.002,485.344 "/>
<polygon class="st1" points="85.666,480.672 85.673,317.005 254.669,317.011 254.667,480.677 "/>
<rect x="189.337" y="199.673" class="st0" width="69.665" height="119.668"/>
<rect x="183.337" y="195.34" class="st1" width="71.332" height="119.668"/>
</svg>
